G04*
G04 #@! TF.GenerationSoftware,Altium Limited,Altium Designer,24.5.2 (23)*
G04*
G04 Layer_Color=16711935*
%FSLAX44Y44*%
%MOMM*%
G71*
G04*
G04 #@! TF.SameCoordinates,F5A7D25A-99A0-49D6-8A03-8BDFA9006FF5*
G04*
G04*
G04 #@! TF.FilePolarity,Positive*
G04*
G01*
G75*
%ADD10C,0.2000*%
%ADD11C,0.2540*%
%ADD12C,0.1500*%
%ADD20C,0.1000*%
D10*
X475000Y80000D02*
G03*
X475000Y80000I-65000J0D01*
G01*
X10000Y67375D02*
G03*
X10000Y92625I0J12625D01*
G01*
X590000D02*
G03*
X590000Y67375I0J-12625D01*
G01*
X256000Y139000D02*
X284000D01*
X256000Y21000D02*
Y139000D01*
Y21000D02*
X284000D01*
Y139000D01*
X100000Y29750D02*
Y130250D01*
X9750Y29750D02*
X100000D01*
X9905Y130250D02*
X99699D01*
X9750Y92625D02*
Y130250D01*
Y29750D02*
Y67375D01*
X500000Y29750D02*
Y130250D01*
X590250D01*
X500301Y29750D02*
X590095D01*
X590250D02*
Y67375D01*
Y92625D02*
Y130250D01*
X225000Y113000D02*
Y138000D01*
X125000Y113000D02*
X225000D01*
X125000D02*
Y138000D01*
X225000D01*
Y83000D02*
Y108000D01*
X125000Y83000D02*
X225000D01*
X125000D02*
Y108000D01*
X225000D01*
X125000Y52000D02*
Y77000D01*
X225000D01*
Y52000D02*
Y77000D01*
X125000Y52000D02*
X225000D01*
X125000Y22000D02*
Y47000D01*
X225000D01*
Y22000D02*
Y47000D01*
X125000Y22000D02*
X225000D01*
D11*
X316000Y50000D02*
G03*
X316000Y50000I-1000J0D01*
G01*
X339270Y80000D02*
G03*
X339270Y80000I-24270J0D01*
G01*
D12*
X410000Y40000D02*
Y48000D01*
X406000Y44000D02*
X414000D01*
D20*
X410665Y136832D02*
X409499Y137998D01*
X407166D01*
X406000Y136832D01*
Y132166D01*
X407166Y131000D01*
X409499D01*
X410665Y132166D01*
X412998Y131000D02*
X415330D01*
X414164D01*
Y137998D01*
X412998Y136832D01*
X171000Y127998D02*
Y121000D01*
X174499D01*
X175665Y122166D01*
Y126831D01*
X174499Y127998D01*
X171000D01*
X177998Y121000D02*
X180330D01*
X179164D01*
Y127998D01*
X177998Y126831D01*
X266000Y146000D02*
Y152998D01*
X269499D01*
X270665Y151831D01*
Y149499D01*
X269499Y148333D01*
X266000D01*
X268333D02*
X270665Y146000D01*
X272998D02*
X275330D01*
X274164D01*
Y152998D01*
X272998Y151831D01*
X15665Y142998D02*
X13333D01*
X14499D01*
Y137166D01*
X13333Y136000D01*
X12166D01*
X11000Y137166D01*
X17998Y136000D02*
X20330D01*
X19164D01*
Y142998D01*
X17998Y141832D01*
X505665Y142998D02*
X503333D01*
X504499D01*
Y137166D01*
X503333Y136000D01*
X502166D01*
X501000Y137166D01*
X512663Y136000D02*
X507998D01*
X512663Y140665D01*
Y141832D01*
X511497Y142998D01*
X509164D01*
X507998Y141832D01*
X311000Y117998D02*
Y111000D01*
X314499D01*
X315665Y112166D01*
Y116832D01*
X314499Y117998D01*
X311000D01*
X317998Y116832D02*
X319164Y117998D01*
X321497D01*
X322663Y116832D01*
Y115665D01*
X321497Y114499D01*
X320330D01*
X321497D01*
X322663Y113333D01*
Y112166D01*
X321497Y111000D01*
X319164D01*
X317998Y112166D01*
X121000Y125000D02*
X116335D01*
X121000Y95000D02*
X116335D01*
X171000Y97998D02*
Y91000D01*
X174499D01*
X175665Y92166D01*
Y96832D01*
X174499Y97998D01*
X171000D01*
X182663Y91000D02*
X177998D01*
X182663Y95665D01*
Y96832D01*
X181497Y97998D01*
X179164D01*
X177998Y96832D01*
X229000Y65000D02*
X233665D01*
X171000Y67998D02*
Y61000D01*
X174499D01*
X175665Y62166D01*
Y66831D01*
X174499Y67998D01*
X171000D01*
X181497Y61000D02*
Y67998D01*
X177998Y64499D01*
X182663D01*
X229000Y35000D02*
X233665D01*
X171000Y37998D02*
Y31000D01*
X174499D01*
X175665Y32166D01*
Y36831D01*
X174499Y37998D01*
X171000D01*
X182663D02*
X177998D01*
Y34499D01*
X180330Y35665D01*
X181497D01*
X182663Y34499D01*
Y32166D01*
X181497Y31000D01*
X179164D01*
X177998Y32166D01*
M02*
